<?xml version="1.0" encoding="UTF-8"?>
<svg width="15px" height="15px" viewBox="0 0 15 15" version="1.1" xmlns="http://www.w3.org/2000/svg" xmlns:xlink="http://www.w3.org/1999/xlink">
    <!-- Generator: Sketch 55.2 (78181) - https://sketchapp.com -->
    <title>np_back_1442977_000000</title>
    <desc>Created with Sketch.</desc>
    <g id="Page-1" stroke="none" stroke-width="1" fill="none" fill-rule="evenodd">
        <g id="np_back_1442977_000000" fill="#00CF98" fill-rule="nonzero">
            <path d="M7.00725099,11.1848776 C7.26682547,11.4702221 7.68224964,11.4702221 7.96759406,11.1848776 C8.22716855,10.9253031 8.22716855,10.509879 7.96759406,10.2245346 L5.91739817,8.17433865 L10.7443885,8.17433865 C11.1076728,8.17433865 11.4193872,7.88899422 11.4193872,7.49934 C11.4193872,7.13605573 11.1082578,6.82434135 10.7443885,6.82434135 L5.91739817,6.82434135 L7.96759406,4.77414545 C8.22716855,4.48880102 8.22716855,4.07336185 7.96759406,3.81380237 C7.68224964,3.52845794 7.26681047,3.52845794 7.00725099,3.81380237 L3.78930742,7.00594599 L3.73774502,7.05750838 L3.73774502,7.08329033 L3.71196458,7.08329033 L3.71196458,7.10907228 C3.68618263,7.13485423 3.68618263,7.13485423 3.65981568,7.16122118 L3.65981568,7.21278357 L3.63403373,7.21278357 L3.63403373,7.26434597 L3.60825178,7.26434597 C3.60825178,7.34227532 3.58246984,7.39383771 3.58246984,7.47176556 L3.58246984,7.52332795 C3.58246984,7.6012573 3.60825178,7.65281969 3.60825178,7.73074754 L3.63403373,7.73074754 L3.63403373,7.78230994 L3.65981568,7.78230994 L3.65981568,7.83387233 C3.68559763,7.85965428 3.68559763,7.88602123 3.71196458,7.88602123 L3.71196458,7.91180318 L3.73774502,7.91180318 L3.73774502,7.93758512 L3.78930742,7.98914752 L7.00725099,11.1812911 L7.00725099,11.1848776 Z M11.6003918,0 L3.3996082,0 C2.46562007,0 1.60891178,0.389069222 1.01191298,1.01191298 C0.389069222,1.60898678 0,2.46503507 0,3.3996082 L0,11.6003918 C0,12.5343799 0.389069222,13.3910882 1.01191298,13.988087 C1.60898678,14.6109308 2.46503507,15 3.3996082,15 L11.6003918,15 C12.5343799,15 13.3910882,14.6109308 13.988087,13.988087 C14.6109308,13.3910132 15,12.5349649 15,11.6003918 L15,3.3996082 C15,2.46562007 14.6109308,1.60891178 13.988087,1.01191298 C13.3910132,0.389069222 12.5349649,0 11.6003918,0 Z M3.3996082,1.37519725 L11.6003918,1.37519725 C12.1453107,1.37519725 12.6644597,1.58261683 13.0277289,1.97227106 C13.4167982,2.33555533 13.6505727,2.85468929 13.6505727,3.3996082 L13.6505727,11.6003918 C13.6505727,12.1453107 13.4167832,12.6644597 13.0277289,13.0277289 C12.6644447,13.4167982 12.1453107,13.6505727 11.6003918,13.6505727 L3.3996082,13.6505727 C2.85468929,13.6505727 2.33554033,13.4167832 1.97227106,13.0277289 C1.58320183,12.6644447 1.37519725,12.1453107 1.37519725,11.6003918 L1.37519725,3.3996082 C1.37519725,2.85468929 1.58261683,2.33554033 1.97227106,1.97227106 C2.33555533,1.58320183 2.85468929,1.37519725 3.3996082,1.37519725 Z" id="Shape"></path>
        </g>
    </g>
</svg>