<?xml version="1.0" encoding="UTF-8"?>
<svg width="152px" height="152px" viewBox="0 0 152 152" version="1.1" xmlns="http://www.w3.org/2000/svg" xmlns:xlink="http://www.w3.org/1999/xlink">
    <!-- Generator: Sketch 55.2 (78181) - https://sketchapp.com -->
    <title>Group</title>
    <desc>Created with Sketch.</desc>
    <g id="Page-1" stroke="none" stroke-width="1" fill="none" fill-rule="evenodd">
        <g id="e2g-logo-copy-6" transform="translate(-34.000000, -30.000000)" fill="#00CF98">
            <g id="Group" transform="translate(35.000000, 31.000000)">
                <circle id="Oval" stroke="#4A4A4A" stroke-width="2" fill-opacity="0.0564084353" cx="75" cy="75" r="75"></circle>
                <g id="np_tree_2970438_000000" transform="translate(26.000000, 20.000000)" fill-rule="nonzero">
                    <path d="M24.4550659,50.419816 C30.0062634,52.4038858 35.3185694,56.1373974 37.8611752,59.0900174 C39.5294837,61.0271178 35.5740643,59.5551006 34.426358,59.2862943 C28.7343598,57.9763976 19.1250643,55.9453586 11.6666667,47.3222357 C20.5119898,63.2033138 41.3091002,59.3288944 45.4566596,67.5856568 C47.5090297,71.6690349 48.4008042,86.5350304 41.6505611,91.3728662 C34.6656865,96.3735653 19.7363296,93.1990974 13.3822729,102.902186 C25.1924948,94.3642632 31.4012722,100.465791 46.1225411,95.5973706 C46.1524097,101.011946 40.9382557,105.628698 33.3434267,109 C41.2840859,109 49.5316886,104.204109 53.3591967,96.8568027 C56.0174797,102.369576 60.3953013,106.469994 68.7970311,108.693061 C63.1561537,105.249776 59.1196838,101.017079 59.9304077,96.203602 C67.8882164,100.649627 79.1181951,95.4697016 89.5641026,106.077091 C80.3134175,89.6247352 65.6006686,98.5887676 59.2269501,89.3429195 C55.4806018,83.9069354 55.6939329,75.0489662 56.513177,70.3214535 C59.2567706,60.6272127 87.4227079,61.390955 87.0851794,37.7651888 C86.3768719,50.4337867 71.8996721,57.9346714 65.9170061,58.1050716 C64.9612214,58.1349397 64.9356173,57.9386692 65.1190952,57.2389034 C66.7874037,53.761429 68.7672434,46.2011227 64.4321208,41.9214567 C69.7187571,53.4507764 58.0360096,59.9401832 54.4134218,64.7791113 C50.6115833,59.7656322 50.1977012,47.1700006 54.3238172,37.7695908 C49.5021838,43.7474694 50.0142659,50.6129581 49.1565721,54.2689157 C48.9560321,55.1393548 48.3074639,55.1734785 47.7911654,54.6486678 C43.6992053,50.5012804 38.7539207,45.8291479 31.4871169,43.5038408 C41.2625551,49.6053687 50.9228622,60.6989664 50.5471023,71.0627926 C47.7309782,61.9104462 35.6171991,51.4864338 24.4459876,50.4279865 L24.4550659,50.419816 Z" id="Path"></path>
                    <path d="M33.9574615,42.5977011 C37.5180073,38.2820025 36.8406236,30.5024023 32.6322821,27.3842365 C29.0717362,31.6999351 29.74912,39.4795353 33.9574615,42.5977011 Z" id="Path"></path>
                    <path d="M29.1533259,42.5977011 C30.0145363,37.0511088 25.3492604,30.7376189 20.0261613,30.2479475 C19.1649509,35.7945399 23.8302267,42.1080297 29.1533259,42.5977011 L29.1533259,42.5977011 Z" id="Path"></path>
                    <path d="M40.8862012,45.4614122 C45.0366141,41.7442226 45.5342792,33.9650281 41.8605192,30.2479475 C37.7058952,33.965137 37.20823,41.7443315 40.8862012,45.4614122 Z" id="Path"></path>
                    <path d="M10.8559723,46.7142857 C11.6324302,41.7324764 7.4160914,36.0631276 2.60556616,35.6174056 C1.8291083,40.5992149 6.04544706,46.2728004 10.8559723,46.7142857 Z" id="Path"></path>
                    <path d="M21.735702,51.3678161 C24.1151251,46.2919492 21.4345126,38.973915 16.4950672,37.0492611 C14.1156441,42.1251279 16.7962567,49.4431622 21.735702,51.3678161 Z" id="Path"></path>
                    <path d="M12.025641,50.6466235 C9.72597372,46.739466 3.57903085,45.0954689 0,47.4354783 C2.29966731,51.3426358 8.44661018,52.9866329 12.025641,50.6466235 Z" id="Path"></path>
                    <path d="M16.5128205,55.7652438 C12.6843001,52.8680061 6.07536345,53.772036 3.58974359,57.5303227 C7.41826399,60.4275604 14.0229298,59.5235305 16.5128205,55.7652438 Z" id="Path"></path>
                    <path d="M23.3333333,59.3598796 C18.9113511,57.458901 12.6689858,59.9005572 11.1282051,64.1358893 C15.5501874,66.0411521 21.7882663,63.5952116 23.3333333,59.3598796 L23.3333333,59.3598796 Z" id="Path"></path>
                    <path d="M49.2138718,42.5977011 C52.7744176,38.2820025 52.0970338,30.5024023 47.8886923,27.3842365 C44.3281465,31.6999351 45.0055303,39.4795353 49.2138718,42.5977011 Z" id="Path"></path>
                    <path d="M85.2654185,37.407225 C83.7104688,33.7994136 85.6258724,28.6766064 89.0166328,27.3842365 C90.5715825,30.9920478 88.6561789,36.114855 85.2654185,37.407225 Z" id="Path"></path>
                    <path d="M84.104029,43.8505747 C79.5455965,42.0701044 76.7773353,35.8447133 78.6908428,31.679803 C83.2492753,33.4602733 86.0175365,39.6856644 84.104029,43.8505747 Z" id="Path"></path>
                    <path d="M89.2051282,41.6854954 C89.2992379,37.2611469 93.7950806,32.9840828 98,33.3079365 C97.9058903,37.732285 93.4100476,42.009349 89.2051282,41.6854954 Z" id="Path"></path>
                    <path d="M87.4102564,48.437482 C88.9716189,44.913486 93.9243609,42.9681881 97.1025641,44.6331255 C95.5412016,48.1571215 90.5884597,50.1024194 87.4102564,48.437482 Z" id="Path"></path>
                    <path d="M83.1025641,54.5764658 C85.8699664,51.081049 92.1074241,50.2731284 95.3076923,52.9898807 C92.54029,56.4852975 86.3028323,57.2973976 83.1025641,54.5764658 Z" id="Path"></path>
                    <path d="M68.7435897,51.2153219 C70.5040506,47.1836354 76.103513,44.9659801 79.6923077,46.8667799 C77.9318468,50.8984664 72.3323844,53.1161217 68.7435897,51.2153219 Z" id="Path"></path>
                    <path d="M68.3572074,46.3563218 C66.5207862,41.0643801 69.8508907,34.0188117 74.8735618,32.5747126 C76.709983,37.8666544 73.3798785,44.9122228 68.3572074,46.3563218 Z" id="Path"></path>
                    <path d="M64.8574994,40.9868637 C61.4864569,36.5303423 62.4340326,28.7503987 66.7066031,25.773399 C70.0776457,30.2299205 69.1300699,38.009864 64.8574994,40.9868637 Z" id="Path"></path>
                    <path d="M63.5579285,49.5779967 C58.3787815,47.5367635 55.2426583,40.398829 57.4164305,35.6174056 C62.5955775,37.6628935 65.7317007,44.7965733 63.5579285,49.5779967 L63.5579285,49.5779967 Z" id="Path"></path>
                    <path d="M54.9857046,37.0492611 C51.614662,32.5927396 52.5622378,24.8127961 56.8348082,21.8357964 C60.2058508,26.2923178 59.2582751,34.0722614 54.9857046,37.0492611 Z" id="Path"></path>
                    <path d="M44.3236002,28.816092 C46.92087,23.879327 44.6381629,16.4725552 39.855887,14.318555 C37.2586172,19.2553199 39.5413243,26.6620917 44.3236002,28.816092 Z" id="Path"></path>
                    <path d="M28.25589,30.2479475 C29.1171004,24.7013551 24.4518245,18.3878652 19.1287254,17.8981938 C18.267515,23.4447862 22.9327908,29.758276 28.25589,30.2479475 L28.25589,30.2479475 Z" id="Path"></path>
                    <path d="M18.3076923,34.518036 C18.148683,29.9460286 13.4643601,25.5781676 9.15384615,25.9778589 C9.31285549,30.5498663 13.9971784,34.9177273 18.3076923,34.518036 Z" id="Path"></path>
                    <path d="M71.2995145,30.7848933 C75.6211004,28.1785591 77.3231742,21.4078933 74.6263948,17.5402299 C70.3005284,20.146564 68.5984547,26.9172299 71.2995145,30.7848933 Z" id="Path"></path>
                    <path d="M80.0875163,31.1428571 C83.5340839,30.901957 86.709663,27.2419965 86.2970991,23.9835796 C82.8505315,24.2244798 79.6749524,27.8844403 80.0875163,31.1428571 Z" id="Path"></path>
                    <path d="M62.0656883,25.4154351 C66.2161012,21.6982456 66.7137664,13.9190511 63.0400063,10.2019704 C58.8853823,13.91916 58.3877172,21.6983545 62.0656883,25.4154351 Z" id="Path"></path>
                    <path d="M50.757996,25.5944171 C54.9084089,21.8772275 55.4060741,14.0980331 51.732314,10.3809524 C47.57769,14.0981419 47.0800249,21.8773364 50.757996,25.5944171 Z" id="Path"></path>
                    <path d="M36.4423915,26.6683087 C38.3184393,21.3994517 35.0130581,14.3561582 29.9678649,12.8866995 C28.0918171,18.1555565 31.3971983,25.1988501 36.4423915,26.6683087 Z" id="Path"></path>
                    <path d="M37.557326,14.6765189 C39.5960824,10.8382467 37.8031616,5.0786954 34.0562076,3.40065681 C32.021683,7.23892897 33.8103719,13.0026593 37.557326,14.6765189 Z" id="Path"></path>
                    <path d="M68.0932353,17.5402299 C66.5616289,13.2100492 69.3355552,7.44619698 73.5221493,6.26436782 C75.0537557,10.5945485 72.2798294,16.3584007 68.0932353,17.5402299 Z" id="Path"></path>
                    <path d="M56.8309016,13.7816092 C53.9716017,10.1103452 54.7732592,3.70157805 58.3998676,1.25287356 C61.2591675,4.92413753 60.45751,11.3329047 56.8309016,13.7816092 Z" id="Path"></path>
                    <path d="M45.7136194,14.1395731 C49.2387287,11.0797373 49.6598214,4.67535138 46.5427908,1.61083744 C43.0176816,4.6749162 42.5965889,11.0750591 45.7136194,14.1395731 Z" id="Path"></path>
                    <path d="M17.6864653,26.8472906 C18.3799423,22.2688101 14.6105172,17.04793 10.3135347,16.6453202 C9.62005773,21.2238008 13.3894828,26.4446808 17.6864653,26.8472906 Z" id="Path"></path>
                    <path d="M27.378773,18.9720854 C28.07225,14.3936048 24.3028249,9.17272476 20.0058424,8.77011494 C19.3123654,13.3485955 23.0817905,18.5694756 27.378773,18.9720854 Z" id="Path"></path>
                    <path d="M13.4615385,38.0976747 C13.3025291,33.5256674 8.61820626,29.1578063 4.30769231,29.5574977 C4.46670164,34.1295051 9.15102451,38.4973661 13.4615385,38.0976747 Z" id="Path"></path>
                    <path d="M77.3467808,27.7422003 C75.8508307,24.3894843 77.6962577,19.6310573 80.9609115,18.4351396 C82.4568616,21.7878556 80.6114346,26.5462826 77.3467808,27.7422003 L77.3467808,27.7422003 Z" id="Path"></path>
                    <path d="M73.0512821,15.7681794 C73.7785659,12.4577444 77.8129182,9.87796268 80.9487179,10.7211474 C80.2214341,14.0315823 76.1870818,16.6113641 73.0512821,15.7681794 Z" id="Path"></path>
                    <path d="M66.6460477,11.0968801 C68.6007088,8.18108569 67.629845,3.42652039 64.7385677,1.78981938 C62.7839066,4.70561382 63.7547704,9.46017911 66.6460477,11.0968801 Z" id="Path"></path>
                    <path d="M52.8255349,9.30706076 C54.780196,6.39126631 53.8093322,1.63670102 50.9180549,0 C48.9633938,2.91579444 49.9342575,7.67035974 52.8255349,9.30706076 Z" id="Path"></path>
                    <path d="M31.9487179,11.7915316 C31.8163179,7.98506915 27.9638136,4.34119652 24.4102564,4.67480669 C24.5426565,8.48126911 28.3951608,12.1251417 31.9487179,11.7915316 Z" id="Path"></path>
                    <path d="M20.2820513,16.7144503 C19.2629357,13.2197239 14.8610698,10.7678997 11.6666667,11.9226597 C12.6857822,15.4173861 17.0876481,17.8692103 20.2820513,16.7144503 Z" id="Path"></path>
                    <path d="M41.3383554,10.5599343 C43.2930165,7.64413988 42.3221527,2.88957458 39.4308754,1.25287356 C37.4762143,4.16866801 38.4470781,8.9232333 41.3383554,10.5599343 Z" id="Path"></path>
                    <path d="M90.856747,34.1855501 C94.3033146,33.9446499 97.4788938,30.2846894 97.0663299,27.0262726 C93.6197623,27.2671728 90.4441831,30.9271332 90.856747,34.1855501 Z" id="Path"></path>
                    <path d="M87.7174628,27.0262726 C86.3340981,23.8686715 88.0412167,19.3863103 91.0517679,18.2561576 C92.4351327,21.4137588 90.7280141,25.9003458 87.7174628,27.0262726 L87.7174628,27.0262726 Z" id="Path"></path>
                    <path d="M84.6066698,22.0147783 C83.3939037,19.3064291 84.8875135,15.4659698 87.5215353,14.4975369 C88.7343014,17.2058861 87.2406916,21.0463455 84.6066698,22.0147783 Z" id="Path"></path>
                    <path d="M90.4615385,28.4462135 C90.5259669,25.436494 93.5540912,22.520654 96.3846154,22.7426207 C96.320188,25.7523402 93.2920626,28.6681801 90.4615385,28.4462135 L90.4615385,28.4462135 Z" id="Path"></path>
                    <path d="M79.1538462,17.7072972 C79.2182746,14.6975777 82.2463989,11.7817378 85.0769231,12.0037044 C85.0124946,15.0134239 81.9843703,17.9292639 79.1538462,17.7072972 Z" id="Path"></path>
                    <path d="M34.1025641,50.5432625 C33.4975584,45.9784677 28.4487616,42.0682742 24.2307692,42.8854031 C24.835775,47.4459266 29.8845718,51.3603915 34.1025641,50.5432625 L34.1025641,50.5432625 Z" id="Path"></path>
                    <path d="M58.9274044,56.2003284 C55.3527561,54.8406982 53.1855758,50.0797832 54.6879802,46.8932677 C58.2626286,48.2528979 60.4298089,53.0138129 58.9274044,56.2003284 Z" id="Path"></path>
                </g>
            </g>
        </g>
    </g>
</svg>